<?xml version="1.0" standalone="no"?>
<!DOCTYPE svg PUBLIC "-//W3C//DTD SVG 20010904//EN"
 "http://www.w3.org/TR/2001/REC-SVG-20010904/DTD/svg10.dtd">
<svg version="1.0" xmlns="http://www.w3.org/2000/svg"
 width="166.000000pt" height="70.000000pt" viewBox="0 0 166.000000 70.000000"
 preserveAspectRatio="xMidYMid meet">

<g transform="translate(0.000000,70.000000) scale(0.100000,-0.100000)"
fill="#000000" stroke="none">
<path d="M563 678 c-12 -13 -41 -73 -66 -135 -63 -157 -74 -150 215 -128 123
9 225 19 227 21 18 17 -40 19 -204 8 -104 -7 -193 -10 -197 -6 -3 4 19 57 50
117 l57 110 243 3 c188 2 243 5 239 15 -3 9 -71 13 -273 15 -270 2 -270 2
-291 -20z"/>
<path d="M793 283 c37 -2 96 -2 130 0 34 2 4 3 -68 3 -71 0 -99 -1 -62 -3z"/>
<path d="M330 168 c-1 -40 -2 -42 -15 -24 -15 20 -15 20 -15 0 0 -16 -2 -17
-10 -4 -9 13 -11 13 -20 0 -8 -12 -10 -12 -10 -1 0 10 -3 11 -14 2 -11 -9 -15
-9 -20 1 -5 10 -7 10 -12 1 -8 -18 -43 -16 -50 2 -4 8 -14 15 -24 15 -10 0
-20 5 -22 10 -2 7 -11 5 -23 -4 -19 -15 -18 -15 18 -16 20 0 37 -4 37 -10 0
-5 -20 -10 -45 -10 -38 0 -45 3 -45 19 0 14 -5 18 -20 14 -11 -3 -20 -14 -20
-24 0 -18 10 -19 165 -19 l165 0 0 45 c0 25 -4 45 -10 45 -5 0 -10 -19 -10
-42z m-280 -28 c0 -5 -4 -10 -10 -10 -5 0 -10 5 -10 10 0 6 5 10 10 10 6 0 10
-4 10 -10z"/>
<path d="M370 165 c0 -25 5 -45 10 -45 6 0 10 20 10 45 0 25 -4 45 -10 45 -5
0 -10 -20 -10 -45z"/>
<path d="M532 168 l-2 -48 50 0 c43 0 50 3 50 20 0 24 -35 28 -44 5 -3 -8 -14
-15 -25 -15 -16 0 -21 8 -24 43 l-4 42 -1 -47z"/>
<path d="M790 158 l0 -53 -21 33 c-20 31 -39 42 -39 22 0 -5 5 -10 10 -10 6 0
10 -4 10 -10 0 -16 -37 -12 -44 5 -3 8 -16 14 -28 14 -17 -1 -18 -2 -5 -6 24
-6 21 -21 -5 -26 -13 -2 2 -5 33 -6 37 -1 61 -6 69 -16 21 -26 40 1 40 56 0
27 -4 49 -10 49 -5 0 -10 -24 -10 -52z"/>
<path d="M1030 170 c0 -38 -13 -54 -23 -27 -4 10 -6 10 -6 0 -1 -20 -41 -16
-41 5 -1 16 -1 16 -14 0 -19 -25 -56 -24 -56 2 0 14 -5 18 -17 13 -18 -7 -33
-22 -33 -35 0 -5 66 -8 146 -8 133 0 145 1 142 18 -2 12 -14 18 -41 20 -32 3
-37 7 -37 28 0 13 -4 24 -10 24 -5 0 -10 -18 -10 -40z m-150 -24 c0 -3 -4 -8
-10 -11 -5 -3 -10 -1 -10 4 0 6 5 11 10 11 6 0 10 -2 10 -4z m230 -6 c0 -5
-13 -10 -30 -10 -16 0 -30 5 -30 10 0 6 14 10 30 10 17 0 30 -4 30 -10z"/>
<path d="M1220 170 c0 -22 -4 -40 -10 -40 -5 0 -10 9 -10 20 0 24 -13 26 -34
4 -20 -20 -20 -34 -1 -34 18 0 20 -16 3 -23 -8 -3 -6 -6 5 -6 10 -1 20 6 23
14 4 8 15 15 25 15 16 0 19 8 19 45 0 25 -4 45 -10 45 -5 0 -10 -18 -10 -40z"/>
<path d="M1263 165 c0 -27 2 -38 4 -22 2 15 2 37 0 50 -2 12 -4 0 -4 -28z"/>
<path d="M1600 160 c0 -27 -4 -50 -10 -50 -5 0 -10 6 -10 13 0 8 -9 24 -19 36
l-19 22 -20 -26 c-23 -29 -32 -32 -32 -7 -1 16 -1 16 -11 0 -11 -20 -49 -24
-49 -6 0 9 -3 9 -12 0 -19 -19 -48 -15 -48 8 0 16 -4 18 -22 11 -13 -5 -24
-16 -26 -25 -3 -14 11 -16 121 -16 105 0 126 -3 131 -16 12 -32 31 -6 36 49 3
31 2 57 -2 57 -5 0 -8 -22 -8 -50z"/>
<path d="M1630 165 c0 -25 5 -45 10 -45 6 0 10 20 10 45 0 25 -4 45 -10 45 -5
0 -10 -20 -10 -45z"/>
<path d="M1405 190 c-3 -5 -1 -10 4 -10 6 0 11 5 11 10 0 6 -2 10 -4 10 -3 0
-8 -4 -11 -10z"/>
<path d="M496 144 c-5 -12 -14 -15 -36 -10 -17 3 -30 1 -30 -4 0 -6 18 -10 40
-10 33 0 40 3 40 20 0 24 -6 26 -14 4z"/>
<path d="M27 37 c15 -19 30 -33 31 -31 6 4 -41 64 -51 64 -5 0 4 -15 20 -33z"/>
<path d="M343 35 c0 -22 2 -30 4 -17 2 12 2 30 0 40 -3 9 -5 -1 -4 -23z"/>
<path d="M753 35 c0 -22 2 -30 4 -17 2 12 2 30 0 40 -3 9 -5 -1 -4 -23z"/>
<path d="M920 66 c0 -4 11 -21 25 -38 14 -16 25 -26 25 -21 -1 11 -50 70 -50
59z"/>
<path d="M1232 35 c0 -22 2 -34 5 -27 4 10 8 10 21 0 16 -12 16 -11 1 7 -10
11 -19 29 -22 40 -2 11 -5 2 -5 -20z"/>
<path d="M423 30 c6 -17 15 -30 18 -30 4 0 2 13 -4 30 -6 17 -15 30 -18 30 -4
0 -2 -13 4 -30z"/>
<path d="M1310 51 c0 -5 12 -17 28 -26 l27 -18 -24 27 c-26 28 -31 31 -31 17z"/>
<path d="M126 35 c8 -19 14 -19 14 0 0 8 -4 15 -10 15 -5 0 -7 -7 -4 -15z"/>
<path d="M162 25 c0 -17 2 -22 5 -12 2 9 2 23 0 30 -3 6 -5 -1 -5 -18z"/>
<path d="M242 25 c0 -17 2 -22 5 -12 2 9 2 23 0 30 -3 6 -5 -1 -5 -18z"/>
<path d="M491 34 c0 -11 3 -14 6 -6 3 7 2 16 -1 19 -3 4 -6 -2 -5 -13z"/>
<path d="M562 25 c0 -17 2 -22 5 -12 2 9 2 23 0 30 -3 6 -5 -1 -5 -18z"/>
<path d="M592 25 c0 -17 2 -22 5 -12 2 9 2 23 0 30 -3 6 -5 -1 -5 -18z"/>
<path d="M1042 25 c0 -17 2 -22 5 -12 2 9 2 23 0 30 -3 6 -5 -1 -5 -18z"/>
<path d="M1071 40 c0 -8 4 -22 9 -30 12 -18 12 -2 0 25 -6 13 -9 15 -9 5z"/>
<path d="M1200 25 c0 -32 6 -32 12 0 3 14 1 25 -3 25 -5 0 -9 -11 -9 -25z"/>
<path d="M1420 25 c0 -32 6 -32 12 0 3 14 1 25 -3 25 -5 0 -9 -11 -9 -25z"/>
<path d="M1450 44 c0 -13 18 -39 24 -34 2 3 -2 14 -10 24 -8 11 -14 16 -14 10z"/>
<path d="M1600 40 c0 -5 5 -10 11 -10 5 0 7 5 4 10 -3 6 -8 10 -11 10 -2 0 -4
-4 -4 -10z"/>
<path d="M102 20 c0 -14 2 -19 5 -12 2 6 2 18 0 25 -3 6 -5 1 -5 -13z"/>
<path d="M180 26 c0 -8 4 -17 9 -20 5 -4 7 3 4 14 -6 23 -13 26 -13 6z"/>
<path d="M312 20 c0 -14 2 -19 5 -12 2 6 2 18 0 25 -3 6 -5 1 -5 -13z"/>
<path d="M802 20 c0 -14 2 -19 5 -12 2 6 2 18 0 25 -3 6 -5 1 -5 -13z"/>
<path d="M831 24 c0 -11 3 -14 6 -6 3 7 2 16 -1 19 -3 4 -6 -2 -5 -13z"/>
<path d="M991 23 c-1 -16 5 -23 17 -23 10 0 13 3 6 8 -6 4 -14 14 -17 22 -4
10 -6 8 -6 -7z"/>
<path d="M1100 35 c0 -5 5 -17 10 -25 5 -8 10 -11 10 -5 0 6 -5 17 -10 25 -5
8 -10 11 -10 5z"/>
<path d="M1140 26 c0 -8 4 -17 9 -20 5 -4 7 3 4 14 -6 23 -13 26 -13 6z"/>
<path d="M1512 20 c0 -14 2 -19 5 -12 2 6 2 18 0 25 -3 6 -5 1 -5 -13z"/>
<path d="M1533 26 c1 -11 9 -21 17 -23 10 -3 11 -2 4 4 -6 4 -14 15 -17 23 -5
11 -6 9 -4 -4z"/>
<path d="M1581 23 c-1 -16 5 -23 17 -23 10 0 13 3 6 8 -6 4 -14 14 -17 22 -4
10 -6 8 -6 -7z"/>
<path d="M510 21 c0 -10 19 -25 25 -20 1 2 -3 10 -11 17 -8 7 -14 8 -14 3z"/>
<path d="M610 21 c0 -10 19 -25 25 -20 1 2 -3 10 -11 17 -8 7 -14 8 -14 3z"/>
<path d="M676 17 c3 -10 9 -15 12 -12 3 3 0 11 -7 18 -10 9 -11 8 -5 -6z"/>
<path d="M1630 26 c0 -2 7 -7 16 -10 8 -3 12 -2 9 4 -6 10 -25 14 -25 6z"/>
<path d="M1370 10 c0 -6 7 -10 15 -10 8 0 15 2 15 4 0 2 -7 6 -15 10 -8 3 -15
1 -15 -4z"/>
<path d="M478 3 c7 -3 16 -2 19 1 4 3 -2 6 -13 5 -11 0 -14 -3 -6 -6z"/>
</g>
</svg>
